<svg width="71" height="45" viewBox="0 0 71 45" fill="none" xmlns="http://www.w3.org/2000/svg">
<g clip-path="url(#clip0_843_5722)" filter="url(#filter0_d_843_5722)">
<path d="M56.8153 19.8655C55.8003 20.4247 54.6921 20.7043 53.4909 20.7043C51.5538 20.7043 50.065 20.0361 49.0302 18.6968C48.5227 18.0425 48.1758 17.2792 47.9813 16.4096C47.7811 15.5009 47.7501 14.4775 47.8911 13.334C47.9672 12.7132 48.0884 12.1289 48.2492 11.5753C48.6693 10.1381 49.3686 8.93579 50.3583 7.96836C51.7258 6.63185 53.3782 5.9608 55.3153 5.9608C56.5165 5.9608 57.5569 6.24041 58.431 6.79961C59.3051 7.35882 60.1679 8.18366 60.3174 9.66556H66.9972C66.6052 6.89188 65.655 4.28318 63.67 2.67825C61.6849 1.07332 59.1613 0.270861 56.0935 0.270861C53.5924 0.270861 51.2831 0.824477 49.174 1.93171C48.2181 2.4322 47.3412 3.02496 46.5404 3.70719C46.1062 3.17315 45.6015 2.68664 45.0319 2.25046C43.0722 0.75178 40.5317 0.00244141 37.4103 0.00244141C34.8331 0.00244141 32.4703 0.561649 30.3245 1.68007C28.9851 2.37908 27.7981 3.24864 26.7576 4.28877C25.9991 3.39404 25.0771 2.63911 23.9859 2.02677C22.0628 0.944707 19.7253 0.405071 16.9761 0.405071H7.20315L4 26.274H13.7758C16.5024 26.274 18.9668 25.7344 21.169 24.6523C22.4886 24.0036 23.6588 23.1956 24.6795 22.231C25.4436 23.2012 26.3826 24.0176 27.4964 24.6803C29.3771 25.7987 31.6074 26.3579 34.1846 26.3579C36.3642 26.3579 38.3747 25.9413 40.2131 25.1053C41.6257 24.4622 42.8777 23.6681 43.9717 22.7203C44.6456 23.4864 45.4408 24.1462 46.3572 24.6999C48.1956 25.8071 50.3639 26.3607 52.8678 26.3607C55.9328 26.3607 58.6566 25.5638 61.0364 23.9701C63.4162 22.3764 65.4351 19.4601 66.2246 16.7228H59.3079C59.0908 17.8943 57.8304 19.3063 56.8153 19.8655ZM19.8945 18.8673C18.3944 20.1703 16.4432 20.8218 14.0409 20.8218H11.0295L12.8904 5.78465H15.9018C18.3042 5.78465 20.0947 6.44731 21.2677 7.77543C22.232 8.86589 22.7001 10.317 22.6719 12.1233C22.6042 12.4756 22.5478 12.8363 22.5027 13.1998C22.452 13.6192 22.4153 14.0302 22.3956 14.4356C21.9867 16.295 21.1521 17.7741 19.8917 18.8673H19.8945ZM41.544 17.4861C40.9688 18.3584 40.2751 19.0686 39.4631 19.6111C38.2873 20.3968 36.9197 20.791 35.3576 20.791C33.0765 20.791 31.3706 20.1227 30.2343 18.7806C29.2981 17.6762 28.8498 16.2195 28.8865 14.4076C28.9541 14.0553 29.0105 13.7002 29.0556 13.3368C29.1064 12.9257 29.1402 12.5203 29.16 12.1261C29.5463 10.3841 30.3245 8.95257 31.4975 7.83415C32.9017 6.49485 34.633 5.8238 36.6913 5.8238C37.8812 5.8238 38.8878 6.05028 39.7112 6.50603C40.5345 6.96179 41.1295 7.61885 41.4932 8.47724H42.8833C42.4153 9.45306 42.0572 10.4848 41.8034 11.5753H34.7514L34.1762 16.2195H42.2433C42.0346 16.6752 41.8006 17.0974 41.544 17.4861Z" fill="#3FAFFE"/>
<path d="M5.91174 36.8909H4L5.13915 30.0938H7.17777C7.82066 30.0938 8.34794 30.2308 8.76243 30.502C9.17692 30.7732 9.46453 31.1646 9.62525 31.6707C9.78597 32.1768 9.80853 32.7835 9.68728 33.4853C9.56322 34.2011 9.33483 34.8107 8.99646 35.3195C8.66092 35.8284 8.22951 36.2171 7.71069 36.4855C7.18905 36.7567 6.59128 36.8909 5.91174 36.8909ZM4.48498 36.5051H5.9484C6.55181 36.5051 7.0819 36.382 7.54433 36.1332C8.00676 35.8843 8.38459 35.5348 8.68066 35.0791C8.97673 34.6233 9.1741 34.0809 9.27843 33.4518C9.38276 32.8227 9.37148 32.2886 9.2446 31.8469C9.11489 31.4051 8.87522 31.0668 8.51994 30.8319C8.16466 30.597 7.69659 30.4796 7.11574 30.4796H5.49161L4.4878 36.5051H4.48498Z" fill="#3FAFFE"/>
<path d="M12.3039 30.0938L11.1647 36.8909H10.7474L11.8866 30.0938H12.3039Z" fill="#3FAFFE"/>
<path d="M18.7159 32.2185C18.7046 31.9836 18.6595 31.7572 18.5777 31.5419C18.4988 31.3238 18.3803 31.1308 18.2224 30.9603C18.0673 30.7897 17.87 30.6527 17.6331 30.5521C17.3963 30.4514 17.1143 30.4011 16.7872 30.4011C16.3445 30.4011 15.9131 30.5213 15.493 30.759C15.0729 30.9966 14.7119 31.3461 14.4046 31.8075C14.0972 32.2688 13.8886 32.8308 13.773 33.4935C13.6658 34.1282 13.6743 34.679 13.8012 35.1404C13.9281 35.6045 14.1565 35.9596 14.4892 36.2112C14.8219 36.4601 15.242 36.5859 15.7496 36.5859C16.1923 36.5859 16.6068 36.4825 16.9931 36.2728C17.3765 36.0659 17.7008 35.7695 17.9658 35.3864C18.2309 35.0034 18.4029 34.5476 18.4847 34.0219L18.6172 34.0919H16.2881L16.3614 33.706H18.9527L18.8794 34.0919C18.7807 34.6902 18.5805 35.2075 18.276 35.6409C17.9715 36.0742 17.5965 36.407 17.151 36.639C16.7054 36.8711 16.2205 36.9885 15.6988 36.9885C15.1095 36.9885 14.6189 36.8432 14.2298 36.5552C13.8407 36.2672 13.5671 35.8617 13.4121 35.3361C13.257 34.8104 13.2401 34.1981 13.3585 33.4963C13.4459 32.9706 13.5925 32.4925 13.804 32.0647C14.0127 31.6369 14.2721 31.2706 14.5794 30.9631C14.8868 30.6555 15.2308 30.4206 15.6142 30.2557C15.9977 30.0907 16.3981 30.0068 16.8267 30.0068C17.2186 30.0068 17.5598 30.0711 17.8502 30.197C18.1378 30.3256 18.3803 30.4933 18.5692 30.7086C18.761 30.9211 18.902 31.1588 18.995 31.4216C19.0881 31.6845 19.136 31.9501 19.1388 32.2241H18.7102L18.7159 32.2185Z" fill="#3FAFFE"/>
<path d="M21.6766 30.0938L20.5374 36.8909H20.1201L21.2593 30.0938H21.6766Z" fill="#3FAFFE"/>
<path d="M28.5059 32.2187H28.0829C28.0773 31.9894 28.0321 31.7658 27.9476 31.5505C27.863 31.3352 27.7361 31.1395 27.5754 30.9661C27.4118 30.7927 27.2116 30.6557 26.9776 30.5523C26.7407 30.4516 26.47 30.3985 26.1599 30.3985C25.7087 30.3985 25.2745 30.5187 24.8544 30.7592C24.4342 30.9997 24.0705 31.3492 23.766 31.8133C23.4615 32.2746 23.2556 32.8422 23.1457 33.5077C23.0329 34.176 23.0498 34.738 23.1992 35.1965C23.3487 35.6523 23.5912 35.999 23.9295 36.2338C24.2651 36.4687 24.657 36.5861 25.1053 36.5861C25.4155 36.5861 25.7059 36.5358 25.9794 36.4352C26.2529 36.3345 26.5011 36.1975 26.721 36.0241C26.9438 35.8508 27.1355 35.6551 27.2962 35.4398C27.4569 35.2217 27.581 35.0008 27.6628 34.7687H28.0914C27.9955 35.0427 27.8573 35.3111 27.6741 35.574C27.4908 35.8368 27.2708 36.0745 27.0086 36.2898C26.7492 36.5023 26.456 36.6728 26.1289 36.7986C25.8018 36.9245 25.4493 36.986 25.0687 36.986C24.4935 36.986 24.0113 36.8406 23.6222 36.5498C23.2331 36.259 22.9596 35.8508 22.7988 35.3223C22.6381 34.7967 22.6184 34.1815 22.7368 33.4769C22.8524 32.7779 23.0752 32.1684 23.4079 31.6455C23.7406 31.1227 24.1466 30.72 24.626 30.4321C25.1053 30.1469 25.6326 30.0015 26.1994 30.0015C26.5857 30.0015 26.9212 30.063 27.2088 30.1888C27.4964 30.3146 27.7361 30.4824 27.9278 30.6921C28.1196 30.9046 28.2605 31.1395 28.3592 31.4051C28.4551 31.6679 28.503 31.9391 28.5059 32.2187Z" fill="#3FAFFE"/>
<path d="M29.3461 36.8909L30.4852 30.0938H30.9025L30.3668 33.2952H34.4976L35.0334 30.0938H35.4507L34.3115 36.8909H33.8942L34.4299 33.6811H30.2991L29.7634 36.8909H29.3461Z" fill="#3FAFFE"/>
<path d="M36.0287 36.8909H35.5861L39.1981 30.0938H39.6802L41.0168 36.8909H40.5741L39.3729 30.6278H39.339L36.0287 36.8909ZM37.0861 34.3325H40.3795L40.3118 34.7184H37.0185L37.0861 34.3325Z" fill="#3FAFFE"/>
<path d="M48.6664 30.0938L47.5273 36.8909H47.1184L43.763 30.8487H43.7235L42.7084 36.8909H42.2911L43.4303 30.0938H43.842L47.1974 36.1444H47.2368L48.2519 30.0938H48.6664Z" fill="#3FAFFE"/>
<path d="M55.0784 32.2185C55.0671 31.9836 55.022 31.7572 54.9403 31.5419C54.8585 31.3238 54.7429 31.1308 54.585 30.9603C54.4299 30.7897 54.2325 30.6527 53.9957 30.5521C53.7588 30.4514 53.4768 30.4011 53.1498 30.4011C52.7071 30.4011 52.2757 30.5213 51.8555 30.759C51.4382 30.9966 51.0745 31.3461 50.7671 31.8075C50.4598 32.2688 50.2511 32.8308 50.1355 33.4935C50.0284 34.1282 50.0368 34.679 50.1637 35.1404C50.2906 35.6045 50.519 35.9596 50.8517 36.2112C51.1845 36.4601 51.6046 36.5859 52.1121 36.5859C52.5548 36.5859 52.9693 36.4825 53.3556 36.2728C53.7391 36.0659 54.0633 35.7695 54.3284 35.3864C54.5934 35.0034 54.7654 34.5476 54.8472 34.0219L54.9797 34.0919H52.6507L52.724 33.706H55.3153L55.242 34.0919C55.1433 34.6902 54.9431 35.2075 54.6386 35.6409C54.334 36.0742 53.959 36.407 53.5135 36.639C53.068 36.8711 52.583 36.9885 52.0614 36.9885C51.4721 36.9885 50.9814 36.8432 50.5923 36.5552C50.2032 36.2672 49.9297 35.8617 49.7746 35.3361C49.6195 34.8104 49.6026 34.1981 49.721 33.4963C49.8084 32.9706 49.9551 32.4925 50.1665 32.0647C50.378 31.6369 50.6346 31.2706 50.942 30.9631C51.2493 30.6555 51.5933 30.4206 51.9768 30.2557C52.3574 30.0907 52.7635 30.0068 53.1892 30.0068C53.5812 30.0068 53.9224 30.0711 54.2128 30.197C54.5032 30.3228 54.7429 30.4933 54.9318 30.7086C55.1235 30.9211 55.2645 31.1588 55.3576 31.4216C55.4506 31.6845 55.4986 31.9501 55.5014 32.2241H55.0728L55.0784 32.2185Z" fill="#3FAFFE"/>
<path d="M56.4826 36.8909L57.6217 30.0938H61.4367L61.3691 30.4796H57.9713L57.5033 33.298H60.6952L60.6275 33.6839H57.4356L56.9675 36.5079H60.4442L60.3765 36.8937H56.4797L56.4826 36.8909Z" fill="#3FAFFE"/>
<path d="M66.5771 31.8103C66.6024 31.3797 66.4868 31.033 66.2246 30.7702C65.9624 30.5074 65.5845 30.376 65.0911 30.376C64.7584 30.376 64.4538 30.4375 64.1719 30.5605C63.8927 30.6835 63.6587 30.8485 63.4754 31.061C63.2921 31.2707 63.1765 31.5111 63.1314 31.7824C63.1032 31.9585 63.1089 32.1151 63.154 32.2549C63.1991 32.3947 63.2752 32.5177 63.3824 32.6296C63.4895 32.7386 63.622 32.8365 63.7799 32.9176C63.9378 33.0014 64.1155 33.0741 64.3129 33.1356L65.0262 33.3537C65.2687 33.432 65.4915 33.5215 65.6945 33.6222C65.8975 33.7228 66.0667 33.8458 66.2049 33.9828C66.343 34.1199 66.4417 34.2876 66.5009 34.4749C66.5601 34.6651 66.5686 34.8804 66.5263 35.1264C66.4671 35.4927 66.3205 35.8143 66.0921 36.0994C65.8609 36.3818 65.5648 36.6027 65.1982 36.7621C64.8317 36.9215 64.4087 36.9998 63.935 36.9998C63.4951 36.9998 63.123 36.9243 62.8184 36.7761C62.5139 36.6279 62.2883 36.421 62.1445 36.1582C62.0007 35.8925 61.9443 35.5878 61.9782 35.2439H62.4068C62.3814 35.5235 62.4293 35.7667 62.5562 35.9736C62.6831 36.1777 62.8692 36.3371 63.1173 36.4462C63.3654 36.558 63.6615 36.6111 64.0027 36.6111C64.3721 36.6111 64.7076 36.5468 65.0093 36.421C65.311 36.2952 65.5563 36.119 65.7509 35.8953C65.9454 35.6717 66.0695 35.4144 66.1174 35.118C66.1569 34.8804 66.1344 34.6735 66.0498 34.5001C65.9652 34.3268 65.8214 34.1786 65.6184 34.0527C65.4153 33.9269 65.1616 33.8179 64.8514 33.72L64.0816 33.4824C63.5741 33.3258 63.2019 33.1077 62.9679 32.8281C62.7338 32.5485 62.6492 32.2018 62.7169 31.7907C62.779 31.4357 62.9256 31.1225 63.1568 30.8513C63.388 30.5801 63.6784 30.3704 64.0252 30.2166C64.3721 30.0628 64.7527 29.9873 65.1588 29.9873C65.5648 29.9873 65.9144 30.0656 66.202 30.2222C66.4896 30.3787 66.7011 30.594 66.8365 30.8681C66.9746 31.1421 67.0254 31.4524 66.9887 31.8047H66.5771V31.8103Z" fill="#3FAFFE"/>
</g>
<defs>
<filter id="filter0_d_843_5722" x="0" y="0" width="71" height="45" filterUnits="userSpaceOnUse" color-interpolation-filters="sRGB">
<feFlood flood-opacity="0" result="BackgroundImageFix"/>
<feColorMatrix in="SourceAlpha" type="matrix" values="0 0 0 0 0 0 0 0 0 0 0 0 0 0 0 0 0 0 127 0" result="hardAlpha"/>
<feOffset dy="4"/>
<feGaussianBlur stdDeviation="2"/>
<feComposite in2="hardAlpha" operator="out"/>
<feColorMatrix type="matrix" values="0 0 0 0 0 0 0 0 0 0 0 0 0 0 0 0 0 0 0.25 0"/>
<feBlend mode="normal" in2="BackgroundImageFix" result="effect1_dropShadow_843_5722"/>
<feBlend mode="normal" in="SourceGraphic" in2="effect1_dropShadow_843_5722" result="shape"/>
</filter>
<clipPath id="clip0_843_5722">
<rect width="63" height="37" fill="white" transform="translate(4)"/>
</clipPath>
</defs>
</svg>
