<svg width="88" height="94" viewBox="0 0 88 94" fill="none" xmlns="http://www.w3.org/2000/svg">
<path d="M68.3622 84.8974L68.3236 84.8086L68.2801 84.7221C67.0957 82.3639 64.2948 79.5641 60.3619 77.3782C56.3142 75.1284 50.8283 73.3855 44 73.3855C37.1717 73.3855 31.6858 75.1284 27.6381 77.3782C23.7052 79.5641 20.9043 82.3639 19.7199 84.7221L19.6764 84.8086L19.6378 84.8974C19.175 85.9619 18.5043 86.9174 17.6684 87.7072C16.8326 88.497 15.8491 89.1046 14.7785 89.4955C13.7079 89.8863 12.5712 90.0527 11.4369 89.9855C10.3025 89.9182 9.19208 89.6185 8.17283 89.1032L6.59368 92.2267L8.17282 89.1032C7.15347 88.5878 6.24553 87.867 5.50554 86.9824C4.76547 86.0978 4.20911 85.068 3.87219 83.955C3.53525 82.8419 3.42532 81.6703 3.54959 80.5119C3.67386 79.3535 4.0295 78.2343 4.59342 77.2223L4.63656 77.1449L4.67572 77.0654C10.3706 65.506 25.6367 56.2638 44 56.2638C62.3657 56.2638 77.6443 65.5075 83.3228 77.0623L83.3626 77.1434L83.4066 77.2223C83.9705 78.2343 84.3261 79.3535 84.4504 80.5119C84.5747 81.6703 84.4648 82.8419 84.1278 83.955C83.7909 85.068 83.2345 86.0978 82.4945 86.9824C81.7545 87.867 80.8465 88.5878 79.8272 89.1032C78.8079 89.6185 77.6975 89.9182 76.5631 89.9855C75.4288 90.0527 74.2921 89.8863 73.2215 89.4955C72.1509 89.1046 71.1674 88.497 70.3316 87.7073C69.4957 86.9174 68.825 85.9619 68.3622 84.8974ZM75.8082 37.2029C73.5855 37.2029 71.4459 36.3105 69.8623 34.7092C68.2774 33.1066 67.3801 30.9249 67.3801 28.642V12.5609C67.3801 10.278 68.2774 8.09625 69.8623 6.49368C71.4459 4.89242 73.5855 4 75.8082 4C78.0309 4 80.1705 4.89242 81.7541 6.49368C83.339 8.09625 84.2363 10.278 84.2363 12.5609V28.642C84.2363 30.9249 83.339 33.1066 81.7541 34.7092C80.1704 36.3105 78.0309 37.2029 75.8082 37.2029ZM6.24592 34.7092C4.661 33.1066 3.76374 30.9249 3.76374 28.642V12.5609C3.76374 10.278 4.661 8.09625 6.24592 6.49368C7.82955 4.89242 9.96913 4 12.1918 4C14.4145 4 16.5541 4.89242 18.1377 6.49368L20.6262 4.03254L18.1377 6.49368C19.7226 8.09625 20.6199 10.278 20.6199 12.5609V28.642C20.6199 30.9249 19.7226 33.1066 18.1377 34.7092C16.5541 36.3105 14.4145 37.2029 12.1918 37.2029C9.96913 37.2029 7.82955 36.3105 6.24592 34.7092Z" fill="#3FAFFE" stroke="#212121" stroke-width="7"/>
</svg>
